<?xml version="1.0" encoding="UTF-8" standalone="no"?>
<!DOCTYPE svg PUBLIC "-//W3C//DTD SVG 1.1//EN" "http://www.w3.org/Graphics/SVG/1.1/DTD/svg11.dtd">
<svg width="100%" height="100%" viewBox="0 0 720 720" version="1.1" xmlns="http://www.w3.org/2000/svg" xmlns:xlink="http://www.w3.org/1999/xlink" xml:space="preserve" xmlns:serif="http://www.serif.com/" style="fill-rule:evenodd;clip-rule:evenodd;stroke-linejoin:round;stroke-miterlimit:2;">
    <g transform="matrix(1.25,0,0,1.25,-20,-20)">
        <path d="M304,592C430.2,592 500.356,592 546.178,546.178C592,500.356 592,430.2 592,304C592,177.8 592,107.644 546.178,61.822C500.356,16 430.2,16 304,16C177.8,16 107.644,16 61.822,61.822C16,107.644 16,177.8 16,304C16,430.2 16,500.356 61.822,546.178C107.644,592 177.8,592 304,592Z" style="fill-rule:nonzero;"/>
    </g>
    <g transform="matrix(0.789423,0,0,0.789423,97.0081,101.477)">
        <g transform="matrix(4.58795,0,0,4.58795,116.593,-30.6149)">
            <path d="M56.8,3.51L50.2,3.51C22.5,3.11 3.5,23.11 3.5,47.21C3.495,55.403 5.797,63.272 9.928,70.024C13.084,75.181 17.304,79.69 22.383,83.192L32.909,58.822C30.444,55.698 28.972,51.755 28.972,47.471C28.972,37.889 36.334,30.013 45.705,29.196L56.8,3.51Z" style="fill:white;"/>
        </g>
        <g transform="matrix(4.58795,0,0,4.58795,116.593,-30.6149)">
            <path d="M3.5,126.91L22.383,83.192C23.76,84.141 25.201,85.016 26.7,85.81C31.997,88.615 37.8,90.21 44.1,91.91L49.2,93.11C52.821,93.928 56.442,95.291 59.326,97.679L45.868,126.863C45.321,126.894 44.765,126.91 44.2,126.91L3.5,126.91Z" style="fill:white;"/>
        </g>
        <g transform="matrix(4.58795,0,0,4.58795,116.593,-30.6149)">
            <path d="M70.01,74.511C82.65,81.687 90.9,93.101 90.9,109C90.9,133.19 71.4,152.6 44.2,152.6L34,152.6L45.868,126.863C55.502,126.312 62.413,121.001 64.4,113.81C65.303,110.759 65.198,107.496 64.1,104.51C63.06,101.598 61.38,99.379 59.326,97.679L70.01,74.511Z" style="fill:white;"/>
        </g>
        <g transform="matrix(4.58795,0,0,4.58795,116.593,-30.6149)">
            <path d="M41.152,64.752C37.881,63.241 35.106,61.108 33.056,58.482L45.671,29.275C46.175,29.232 46.685,29.21 47.2,29.21L90.9,29.21L70.01,74.511C63.418,70.769 55.632,68.18 47.2,66.71C45.05,66.276 43.02,65.615 41.152,64.752Z" style="fill:white;"/>
        </g>
    </g>
</svg>
