<?xml version="1.0" encoding="UTF-8" standalone="no"?>
<!DOCTYPE svg PUBLIC "-//W3C//DTD SVG 1.1//EN" "http://www.w3.org/Graphics/SVG/1.1/DTD/svg11.dtd">
<svg width="100%" height="100%" viewBox="0 0 2500 834" version="1.1" xmlns="http://www.w3.org/2000/svg" xmlns:xlink="http://www.w3.org/1999/xlink" xml:space="preserve" xmlns:serif="http://www.serif.com/" style="fill-rule:evenodd;clip-rule:evenodd;stroke-linejoin:round;stroke-miterlimit:2;">
    <g transform="matrix(0.862577,0,0,0.862577,-297.912,315.932)">
        <path d="M951.079,204.258C955.165,216.674 962.207,226.178 972.203,232.77C982.2,239.363 994.993,242.659 1010.58,242.659C1026.97,242.659 1039.5,239.865 1048.16,234.276C1056.83,228.687 1061.16,220.704 1061.16,210.327C1061.16,202.879 1057.75,196.825 1050.93,192.166C1044.11,187.506 1033.93,184.213 1020.39,182.287L986.645,177.778C957.841,173.796 936.52,165.428 922.682,152.675C908.845,139.922 901.926,122.201 901.926,99.512C901.926,73.587 911.42,53.229 930.407,38.438C949.395,23.646 975.575,16.251 1008.95,16.251C1043.6,16.251 1070.73,24.336 1090.34,40.507C1109.95,56.677 1120.4,79.581 1121.68,109.218L1071.76,109.218C1067.95,95.03 1060.77,84.217 1050.22,76.781C1039.67,69.345 1025.77,65.627 1008.5,65.627C991.271,65.627 978.056,68.438 968.855,74.061C959.655,79.684 955.055,87.74 955.055,98.229C955.055,105.492 958.472,111.472 965.305,116.167C972.138,120.863 982.352,124.183 995.947,126.127L1029.68,130.636C1058.68,134.601 1080.03,142.948 1093.74,155.679C1107.44,168.409 1114.29,186.108 1114.29,208.774C1114.29,226.099 1110.12,240.961 1101.78,253.361C1093.43,265.761 1081.52,275.308 1066.05,282.001C1050.57,288.695 1031.93,292.042 1010.13,292.042C976.907,292.042 950.781,284.395 931.757,269.102C912.734,253.809 902.324,232.194 900.529,204.258L951.079,204.258Z" style="fill-rule:nonzero;"/>
        <path d="M1414.86,23.554L1414.86,284.732L1360.43,284.732L1360.43,263.699L1346.48,263.699C1340.29,272.717 1332.02,279.695 1321.67,284.634C1311.31,289.573 1299.73,292.042 1286.93,292.042C1269.11,292.042 1253.63,287.971 1240.5,279.828C1227.36,271.685 1217.2,260.106 1210.01,245.089C1202.83,230.073 1199.23,212.313 1199.23,191.811L1199.23,23.554L1253.66,23.554L1253.66,177.603C1253.66,198.222 1258.18,213.882 1267.2,224.583C1276.23,235.284 1289.5,240.634 1307.02,240.634C1324.57,240.634 1337.87,235.284 1346.89,224.583C1355.91,213.882 1360.43,198.222 1360.43,177.603L1360.43,23.554L1414.86,23.554Z" style="fill-rule:nonzero;"/>
        <path d="M1633.17,291.644C1619.56,291.644 1607.12,288.827 1595.87,283.193C1584.61,277.559 1576.24,269.994 1570.75,260.499L1556.8,260.499L1556.8,284.732L1502.37,284.732L1502.37,-81.604L1556.8,-81.604L1556.8,47.793L1570.75,47.793C1576.26,38.082 1584.63,30.463 1595.87,24.934C1607.1,19.406 1619.53,16.642 1633.17,16.642C1654.66,16.642 1673.34,22.243 1689.21,33.446C1705.09,44.649 1717.33,60.523 1725.94,81.067C1734.55,101.612 1738.86,125.967 1738.86,154.133C1738.86,182.276 1734.55,206.629 1725.94,227.191C1717.33,247.754 1705.09,263.637 1689.21,274.84C1673.34,286.042 1654.66,291.644 1633.17,291.644ZM1619.8,241.606C1640.55,241.606 1656.66,233.926 1668.15,218.565C1679.64,203.204 1685.38,181.725 1685.38,154.126C1685.38,126.505 1679.64,105.025 1668.15,89.687C1656.66,74.349 1640.55,66.68 1619.8,66.68C1599.04,66.68 1582.92,74.356 1571.44,89.707C1559.96,105.059 1554.22,126.543 1554.22,154.16C1554.22,181.758 1559.96,203.232 1571.44,218.582C1582.92,233.931 1599.04,241.606 1619.8,241.606Z" style="fill-rule:nonzero;"/>
        <path d="M1905.42,-44.229L1905.42,23.554L2021.93,23.554L2021.93,73.592L1905.42,73.592L1905.42,197.468C1905.42,211.913 1908.33,222.946 1914.16,230.566C1919.98,238.187 1928.42,241.998 1939.48,241.998C1951.16,241.998 1960.35,237.797 1967.04,229.395C1973.73,220.994 1978.77,207.883 1982.15,190.063L2030.25,190.063C2028.76,223.138 2020.06,248.403 2004.14,265.859C1988.23,283.314 1966.1,292.042 1937.75,292.042C1910.02,292.042 1888.62,283.897 1873.57,267.607C1858.51,251.317 1850.99,228.309 1850.99,198.582L1850.99,73.592L1796.43,73.592L1796.43,23.554L1850.99,23.554L1850.99,-44.229L1905.42,-44.229Z" style="fill-rule:nonzero;"/>
        <path d="M2104.06,23.554L2209.39,23.554L2209.39,44.142L2223.33,44.142C2228.43,35.295 2235.54,28.456 2244.66,23.625C2253.79,18.794 2264.2,16.379 2275.91,16.379C2296.81,16.379 2313.06,23.858 2324.67,38.816C2336.28,53.774 2342.08,74.877 2342.08,102.124L2342.08,141.146L2286.11,141.146L2286.11,109.691C2286.11,82.043 2275.22,68.219 2253.44,68.219C2239.56,68.219 2229.22,74.42 2222.44,86.822C2215.65,99.224 2212.26,117.957 2212.26,143.022L2212.26,234.694L2290.97,234.694L2290.97,284.732L2111.2,284.732L2111.2,234.694L2158.62,234.694L2158.62,73.592L2104.06,73.592L2104.06,23.554Z" style="fill-rule:nonzero;"/>
        <path d="M2574.33,121.031L2574.33,165.952L2500.84,177.292C2489.71,179.11 2481.35,183.003 2475.76,188.97C2470.17,194.937 2467.37,202.688 2467.37,212.223C2467.37,221.412 2470.7,228.841 2477.37,234.508C2484.04,240.176 2492.95,243.01 2504.11,243.01C2516.14,243.01 2527.09,240.199 2536.95,234.576C2546.81,228.953 2554.71,221.437 2560.65,212.028C2566.6,202.618 2569.57,192.12 2569.57,180.532L2569.57,116.252C2569.57,100.236 2564.89,87.743 2555.53,78.772C2546.18,69.802 2533.07,65.316 2516.22,65.316C2504.37,65.316 2493.86,67.258 2484.69,71.142C2475.52,75.025 2468.03,80.62 2462.22,87.925C2456.42,95.231 2452.41,104.194 2450.21,114.814L2398.02,114.814C2399.65,94.416 2405.56,76.864 2415.76,62.161C2425.97,47.457 2439.73,36.129 2457.05,28.178C2474.37,20.226 2494.46,16.251 2517.32,16.251C2551.03,16.251 2577.01,24.555 2595.26,41.165C2613.52,57.774 2622.65,81.528 2622.65,112.425L2622.65,284.732L2569.57,284.732L2569.57,260.101L2555.62,260.101C2549.24,270.307 2540.69,278.067 2529.99,283.382C2519.28,288.696 2506.01,291.354 2490.18,291.354C2474.13,291.354 2460.17,288.184 2448.3,281.846C2436.43,275.508 2427.22,266.658 2420.68,255.295C2414.14,243.933 2410.88,230.73 2410.88,215.686C2410.88,193.483 2417.9,175.34 2431.96,161.257C2446.01,147.175 2466.1,138.072 2492.21,133.95L2574.33,121.031Z" style="fill-rule:nonzero;"/>
        <path d="M2827.89,292.042C2803.61,292.042 2782.52,286.486 2764.64,275.373C2746.75,264.26 2732.93,248.472 2723.17,228.008C2713.41,207.544 2708.54,183.358 2708.54,155.449C2708.54,126.933 2713.55,102.293 2723.57,81.53C2733.59,60.767 2747.83,44.696 2766.27,33.318C2784.72,21.94 2806.4,16.251 2831.33,16.251C2853.51,16.251 2872.83,20.785 2889.29,29.855C2905.76,38.925 2918.72,51.689 2928.19,68.148C2937.66,84.607 2942.82,104.073 2943.69,126.546L2894.28,126.546C2890.65,107.452 2883.28,92.636 2872.16,82.097C2861.05,71.558 2847.06,66.288 2830.19,66.288C2808.58,66.288 2791.81,74.089 2779.9,89.691C2767.98,105.292 2762.02,127.207 2762.02,155.436C2762.02,182.796 2767.82,204.063 2779.41,219.237C2791,234.411 2807.14,241.998 2827.82,241.998C2842.99,241.998 2855.78,237.421 2866.2,228.268C2876.63,219.115 2884.01,206.331 2888.36,189.915L2937.9,189.915C2936.35,210.57 2930.72,228.557 2920.99,243.877C2911.27,259.198 2898.43,271.055 2882.48,279.45C2866.53,287.845 2848.33,292.042 2827.89,292.042Z" style="fill-rule:nonzero;"/>
        <path d="M3052.42,127.254L3205.78,127.254L3187.62,150.846C3187.62,122.64 3182.63,101.222 3172.64,86.592C3162.66,71.963 3147.99,64.648 3128.66,64.648C3107.91,64.648 3091.87,72.317 3080.57,87.655C3069.26,102.994 3063.6,124.503 3063.6,152.182C3063.6,181.909 3069.24,204.583 3080.5,220.205C3091.77,235.827 3108.34,243.638 3130.23,243.638C3143.86,243.638 3155.83,240.29 3166.14,233.594C3176.45,226.898 3185.15,217.119 3192.24,204.258L3243.66,204.258C3239.03,222.551 3231.37,238.258 3220.68,251.38C3209.98,264.502 3196.92,274.56 3181.48,281.553C3166.05,288.546 3148.79,292.042 3129.7,292.042C3104.84,292.042 3083.53,286.521 3065.77,275.478C3048.01,264.435 3034.4,248.487 3024.95,227.634C3015.51,206.781 3010.78,181.63 3010.78,152.182C3010.78,124.251 3015.62,100.169 3025.31,79.937C3034.99,59.705 3048.66,44.032 3066.34,32.92C3084.01,21.807 3104.78,16.251 3128.66,16.251C3151.44,16.251 3170.92,21.503 3187.1,32.008C3203.27,42.514 3215.65,57.773 3224.22,77.787C3232.79,97.801 3237.08,122.007 3237.08,150.407C3237.08,154.16 3236.98,157.834 3236.78,161.43C3236.58,165.025 3236.31,168.483 3235.95,171.804L3052.42,171.804L3052.42,127.254Z" style="fill-rule:nonzero;"/>
    </g>
    <g transform="matrix(0.613996,0,0,0.613996,-81.447,215.593)">
        <g transform="matrix(4.58795,0,0,4.58795,116.593,-30.6149)">
            <path d="M56.8,3.51L50.2,3.51C22.5,3.11 3.5,23.11 3.5,47.21C3.495,55.403 5.797,63.272 9.928,70.024C13.084,75.181 17.304,79.69 22.383,83.192L32.909,58.822C30.444,55.698 28.972,51.755 28.972,47.471C28.972,37.889 36.334,30.013 45.705,29.196L56.8,3.51Z"/>
        </g>
        <g transform="matrix(4.58795,0,0,4.58795,116.593,-30.6149)">
            <path d="M3.5,126.91L22.383,83.192C23.76,84.141 25.201,85.016 26.7,85.81C31.997,88.615 37.8,90.21 44.1,91.91L49.2,93.11C52.821,93.928 56.442,95.291 59.326,97.679L45.868,126.863C45.321,126.894 44.765,126.91 44.2,126.91L3.5,126.91Z"/>
        </g>
        <g transform="matrix(4.58795,0,0,4.58795,116.593,-30.6149)">
            <path d="M70.01,74.511C82.65,81.687 90.9,93.101 90.9,109C90.9,133.19 71.4,152.6 44.2,152.6L34,152.6L45.868,126.863C55.502,126.312 62.413,121.001 64.4,113.81C65.303,110.759 65.198,107.496 64.1,104.51C63.06,101.598 61.38,99.379 59.326,97.679L70.01,74.511Z"/>
        </g>
        <g transform="matrix(4.58795,0,0,4.58795,116.593,-30.6149)">
            <path d="M41.152,64.752C37.881,63.241 35.106,61.108 33.056,58.482L45.671,29.275C46.175,29.232 46.685,29.21 47.2,29.21L90.9,29.21L70.01,74.511C63.418,70.769 55.632,68.18 47.2,66.71C45.05,66.276 43.02,65.615 41.152,64.752Z"/>
        </g>
    </g>
</svg>
